{
  "accessors": [
    {
      "bufferView": 2,
      "componentType": 5126,
      "count": 2974,
      "max": [
        1.0215708017349243,
        0.7565944790840149,
        0.7204166650772095
      ],
      "min": [
        -1.022209882736206,
        -0.7161605954170227,
        -0.8545274138450623
      ],
      "type": "VEC3"
    },
    {
      "bufferView": 2,
      "byteOffset": 35688,
      "componentType": 5126,
      "count": 2974,
      "max": [
        0.999817967414856,
        0.999981164932251,
        0.9999950528144836
      ],
      "min": [
        -0.9991251826286316,
        -0.9998783469200134,
        -0.9997659921646118
      ],
      "type": "VEC3"
    },
    {
      "bufferView": 3,
      "componentType": 5126,
      "count": 2974,
      "max": [
        0.9999648928642273,
        0.5911126136779785,
        0.9992921948432922,
        1.0
      ],
      "min": [
        -0.9999526143074036,
        -0.873047947883606,
        -0.9998384714126587,
        1.0
      ],
      "type": "VEC4"
    },
    {
      "bufferView": 1,
      "componentType": 5126,
      "count": 2974,
      "max": [
        0.998046875,
        0.998046875
      ],
      "min": [
        0.0019530653953552246,
        0.07027792930603027
      ],
      "type": "VEC2"
    },
    {
      "bufferView": 1,
      "byteOffset": 23792,
      "componentType": 5126,
      "count": 2974,
      "max": [
        0.998046875,
        0.998046875
      ],
      "min": [
        0.0019530653953552246,
        0.07027792930603027
      ],
      "type": "VEC2"
    },
    {
      "bufferView": 1,
      "byteOffset": 47584,
      "componentType": 5126,
      "count": 2974,
      "max": [
        0.998046875,
        0.998046875
      ],
      "min": [
        0.0019530653953552246,
        0.07027792930603027
      ],
      "type": "VEC2"
    },
    {
      "bufferView": 0,
      "componentType": 5125,
      "count": 17088,
      "type": "SCALAR"
    },
    {
      "bufferView": 2,
      "byteOffset": 71376,
      "componentType": 5126,
      "count": 2974,
      "max": [
        0.9315235018730164,
        0.5013250112533569,
        0.7209571003913879
      ],
      "min": [
        -1.1122571229934692,
        -0.9714300632476807,
        -0.8539869785308838
      ],
      "type": "VEC3"
    },
    {
      "bufferView": 2,
      "byteOffset": 107064,
      "componentType": 5126,
      "count": 2974,
      "max": [
        0.999817967414856,
        0.9999811053276062,
        0.9999950528144836
      ],
      "min": [
        -0.9991252422332764,
        -0.9998783469200134,
        -0.999765932559967
      ],
      "type": "VEC3"
    },
    {
      "bufferView": 3,
      "byteOffset": 47584,
      "componentType": 5126,
      "count": 2974,
      "max": [
        0.9999648928642273,
        0.5911131501197815,
        0.9992921948432922,
        1.0
      ],
      "min": [
        -0.9999526143074036,
        -0.8730480670928955,
        -0.9998384714126587,
        1.0
      ],
      "type": "VEC4"
    },
    {
      "bufferView": 1,
      "byteOffset": 71376,
      "componentType": 5126,
      "count": 2974,
      "max": [
        0.998046875,
        0.998046875
      ],
      "min": [
        0.0019530653953552246,
        0.07027792930603027
      ],
      "type": "VEC2"
    },
    {
      "bufferView": 1,
      "byteOffset": 95168,
      "componentType": 5126,
      "count": 2974,
      "max": [
        0.998046875,
        0.998046875
      ],
      "min": [
        0.0019530653953552246,
        0.07027792930603027
      ],
      "type": "VEC2"
    },
    {
      "bufferView": 1,
      "byteOffset": 118960,
      "componentType": 5126,
      "count": 2974,
      "max": [
        0.998046875,
        0.998046875
      ],
      "min": [
        0.0019530653953552246,
        0.07027792930603027
      ],
      "type": "VEC2"
    },
    {
      "bufferView": 0,
      "byteOffset": 68352,
      "componentType": 5125,
      "count": 17088,
      "type": "SCALAR"
    },
    {
      "bufferView": 2,
      "byteOffset": 142752,
      "componentType": 5126,
      "count": 2974,
      "max": [
        1.0215708017349243,
        0.7565944790840149,
        0.7204166650772095
      ],
      "min": [
        -1.022209882736206,
        -0.7161605954170227,
        -0.8545274138450623
      ],
      "type": "VEC3"
    },
    {
      "bufferView": 2,
      "byteOffset": 178440,
      "componentType": 5126,
      "count": 2974,
      "max": [
        0.999817967414856,
        0.999981164932251,
        0.9999950528144836
      ],
      "min": [
        -0.9991251826286316,
        -0.9998783469200134,
        -0.9997659921646118
      ],
      "type": "VEC3"
    },
    {
      "bufferView": 3,
      "byteOffset": 95168,
      "componentType": 5126,
      "count": 2974,
      "max": [
        0.9999648928642273,
        0.5911126136779785,
        0.9992921948432922,
        1.0
      ],
      "min": [
        -0.9999526143074036,
        -0.873047947883606,
        -0.9998384714126587,
        1.0
      ],
      "type": "VEC4"
    },
    {
      "bufferView": 1,
      "byteOffset": 142752,
      "componentType": 5126,
      "count": 2974,
      "max": [
        0.998046875,
        0.998046875
      ],
      "min": [
        0.0019530653953552246,
        0.07027792930603027
      ],
      "type": "VEC2"
    },
    {
      "bufferView": 1,
      "byteOffset": 166544,
      "componentType": 5126,
      "count": 2974,
      "max": [
        0.998046875,
        0.998046875
      ],
      "min": [
        0.0019530653953552246,
        0.07027792930603027
      ],
      "type": "VEC2"
    },
    {
      "bufferView": 1,
      "byteOffset": 190336,
      "componentType": 5126,
      "count": 2974,
      "max": [
        0.998046875,
        0.998046875
      ],
      "min": [
        0.0019530653953552246,
        0.07027792930603027
      ],
      "type": "VEC2"
    },
    {
      "bufferView": 0,
      "byteOffset": 136704,
      "componentType": 5125,
      "count": 17088,
      "type": "SCALAR"
    }
  ],
  "asset": {
    "extras": {
      "author": "Urijah653748 (https://sketchfab.com/ujceba0102)",
      "license": "CC-BY-4.0 (http://creativecommons.org/licenses/by/4.0/)",
      "source": "https://sketchfab.com/3d-models/marshmallow-092f14de973c4e10a451b236aea33e83",
      "title": "Marshmallow"
    },
    "generator": "Sketchfab-14.87.0",
    "version": "2.0"
  },
  "bufferViews": [
    {
      "buffer": 0,
      "byteLength": 205056,
      "name": "floatBufferViews",
      "target": 34963
    },
    {
      "buffer": 0,
      "byteLength": 214128,
      "byteOffset": 205056,
      "byteStride": 8,
      "name": "floatBufferViews",
      "target": 34962
    },
    {
      "buffer": 0,
      "byteLength": 214128,
      "byteOffset": 419184,
      "byteStride": 12,
      "name": "floatBufferViews",
      "target": 34962
    },
    {
      "buffer": 0,
      "byteLength": 142752,
      "byteOffset": 633312,
      "byteStride": 16,
      "name": "floatBufferViews",
      "target": 34962
    }
  ],
  "buffers": [
    {
      "byteLength": 776064,
      "uri": "scene.bin"
    }
  ],
  "images": [
    {
      "uri": "textures/MarshmallowMidPoly_baseColor.jpeg"
    },
    {
      "uri": "textures/MarshmallowMidPoly_metallicRoughness.png"
    },
    {
      "uri": "textures/MarshmallowMidPoly_normal.png"
    },
    {
      "uri": "textures/MarshmallowMidPoly.001_baseColor.jpeg"
    },
    {
      "uri": "textures/MarshmallowMidPoly.002_baseColor.jpeg"
    }
  ],
  "materials": [
    {
      "doubleSided": true,
      "name": "MarshmallowMidPoly",
      "normalTexture": {
        "index": 2
      },
      "occlusionTexture": {
        "index": 1
      },
      "pbrMetallicRoughness": {
        "baseColorTexture": {
          "index": 0
        },
        "metallicFactor": 0.0,
        "metallicRoughnessTexture": {
          "index": 1
        }
      }
    },
    {
      "doubleSided": true,
      "name": "MarshmallowMidPoly.001",
      "normalTexture": {
        "index": 2
      },
      "pbrMetallicRoughness": {
        "baseColorTexture": {
          "index": 3
        },
        "metallicFactor": 0.0
      }
    },
    {
      "doubleSided": true,
      "name": "MarshmallowMidPoly.002",
      "normalTexture": {
        "index": 2
      },
      "pbrMetallicRoughness": {
        "baseColorTexture": {
          "index": 4
        },
        "metallicFactor": 0.0
      }
    }
  ],
  "meshes": [
    {
      "name": "MarshmallowMidPoly_MarshmallowMidPoly_0",
      "primitives": [
        {
          "attributes": {
            "NORMAL": 1,
            "POSITION": 0,
            "TANGENT": 2,
            "TEXCOORD_0": 3,
            "TEXCOORD_1": 4,
            "TEXCOORD_2": 5
          },
          "indices": 6,
          "material": 0,
          "mode": 4
        }
      ]
    },
    {
      "name": "MarshmallowMidPoly.001_MarshmallowMidPoly.001_0",
      "primitives": [
        {
          "attributes": {
            "NORMAL": 8,
            "POSITION": 7,
            "TANGENT": 9,
            "TEXCOORD_0": 10,
            "TEXCOORD_1": 11,
            "TEXCOORD_2": 12
          },
          "indices": 13,
          "material": 1,
          "mode": 4
        }
      ]
    },
    {
      "name": "MarshmallowMidPoly.002_MarshmallowMidPoly.002_0",
      "primitives": [
        {
          "attributes": {
            "NORMAL": 15,
            "POSITION": 14,
            "TANGENT": 16,
            "TEXCOORD_0": 17,
            "TEXCOORD_1": 18,
            "TEXCOORD_2": 19
          },
          "indices": 20,
          "material": 2,
          "mode": 4
        }
      ]
    }
  ],
  "nodes": [
    {
      "children": [
        1
      ],
      "matrix": [
        1.0,
        0.0,
        0.0,
        0.0,
        0.0,
        2.220446049250313e-16,
        -1.0,
        0.0,
        0.0,
        1.0,
        2.220446049250313e-16,
        0.0,
        0.0,
        0.0,
        0.0,
        1.0
      ],
      "name": "Sketchfab_model"
    },
    {
      "children": [
        2
      ],
      "matrix": [
        0.009999999776482582,
        0.0,
        0.0,
        0.0,
        0.0,
        0.0,
        0.009999999776482582,
        0.0,
        0.0,
        -0.009999999776482582,
        0.0,
        0.0,
        0.0,
        0.0,
        0.0,
        1.0
      ],
      "name": "Marshmallows.fbx"
    },
    {
      "children": [
        3,
        6,
        8,
        10,
        12
      ],
      "name": "RootNode"
    },
    {
      "children": [
        4
      ],
      "matrix": [
        -29.08647719990347,
        -5.518906457566863,
        -95.51711910171437,
        0.0,
        56.63930913109449,
        79.46723428563203,
        -21.83912397841966,
        0.0,
        77.11008775993375,
        -60.45246356562044,
        -19.98834696773717,
        0.0,
        407.6245422363281,
        590.38623046875,
        -100.54539489746094,
        1.0
      ],
      "name": "Light"
    },
    {
      "children": [
        5
      ],
      "matrix": [
        1.0,
        0.0,
        0.0,
        0.0,
        0.0,
        2.220446049250313e-16,
        1.0,
        0.0,
        0.0,
        -1.0,
        2.220446049250313e-16,
        0.0,
        0.0,
        0.0,
        0.0,
        1.0
      ],
      "name": "Object_4"
    },
    {
      "name": "Object_5"
    },
    {
      "children": [
        7
      ],
      "matrix": [
        -65.15581009765468,
        -44.527143038140764,
        -61.41704928909654,
        0.0,
        -32.40135466989878,
        89.5395708958271,
        -30.542085476036902,
        0.0,
        68.59207001076176,
        1.2755314797120858e-05,
        -72.76761921184276,
        0.0,
        735.88916015625,
        495.8309326171875,
        692.5791015625,
        1.0
      ],
      "name": "Camera"
    },
    {
      "name": "Object_7"
    },
    {
      "children": [
        9
      ],
      "matrix": [
        63.466621083363016,
        2.691893510227702,
        59.72858164063974,
        0.0,
        -17.675657939959176,
        84.056687687306,
        14.993535895191876,
        0.0,
        -57.1167302273382,
        -23.021483696331195,
        61.728860055643146,
        0.0,
        0.0,
        -2.7976701259613037,
        0.0,
        1.0
      ],
      "name": "MarshmallowMidPoly"
    },
    {
      "mesh": 0,
      "name": "MarshmallowMidPoly_MarshmallowMidPoly_0"
    },
    {
      "children": [
        11
      ],
      "matrix": [
        -29.006110386872233,
        2.0400210588957067e-06,
        82.22777698221405,
        0.0,
        -82.22759276291964,
        -0.18456970622808933,
        -29.006045398349958,
        0.0,
        0.1740570371442264,
        -87.19362179216832,
        0.06140133778557238,
        0.0,
        -160.996826171875,
        0.0,
        -85.91698455810547,
        1.0
      ],
      "name": "MarshmallowMidPoly.001"
    },
    {
      "mesh": 1,
      "name": "MarshmallowMidPoly.001_MarshmallowMidPoly.001_0"
    },
    {
      "children": [
        13
      ],
      "matrix": [
        3.210998266257675,
        51.11097132373293,
        70.56995477693594,
        0.0,
        -86.74749745223579,
        -4.774624943996479,
        7.405159662739344,
        0.0,
        8.205055337880024,
        -70.48144242547195,
        50.673527785338564,
        0.0,
        0.0,
        15.376832962036133,
        -168.2118682861328,
        1.0
      ],
      "name": "MarshmallowMidPoly.002"
    },
    {
      "mesh": 2,
      "name": "MarshmallowMidPoly.002_MarshmallowMidPoly.002_0"
    }
  ],
  "samplers": [
    {
      "magFilter": 9729,
      "minFilter": 9987,
      "wrapS": 10497,
      "wrapT": 10497
    }
  ],
  "scene": 0,
  "scenes": [
    {
      "name": "Sketchfab_Scene",
      "nodes": [
        0
      ]
    }
  ],
  "textures": [
    {
      "sampler": 0,
      "source": 0
    },
    {
      "sampler": 0,
      "source": 1
    },
    {
      "sampler": 0,
      "source": 2
    },
    {
      "sampler": 0,
      "source": 3
    },
    {
      "sampler": 0,
      "source": 4
    }
  ]
}
