{
  "accessors": [
    {
      "bufferView": 2,
      "componentType": 5126,
      "count": 65532,
      "max": [
        18.189481735229492,
        5.530826568603516,
        25.456342697143555
      ],
      "min": [
        -11.688238143920898,
        -20.454938888549805,
        -2.5320186614990234
      ],
      "type": "VEC3"
    },
    {
      "bufferView": 2,
      "byteOffset": 786384,
      "componentType": 5126,
      "count": 65532,
      "max": [
        1.0,
        0.9932386875152588,
        1.0
      ],
      "min": [
        -1.0,
        -1.0,
        -0.9737606048583984
      ],
      "type": "VEC3"
    },
    {
      "bufferView": 1,
      "componentType": 5126,
      "count": 65532,
      "max": [
        0.9046568274497986,
        0.9383174180984497
      ],
      "min": [
        0.3300309479236603,
        0.365440309047699
      ],
      "type": "VEC2"
    },
    {
      "bufferView": 0,
      "componentType": 5125,
      "count": 350862,
      "type": "SCALAR"
    },
    {
      "bufferView": 2,
      "byteOffset": 1572768,
      "componentType": 5126,
      "count": 65534,
      "max": [
        19.259199142456055,
        20.343048095703125,
        25.456342697143555
      ],
      "min": [
        -14.154600143432617,
        -20.427061080932617,
        -5.082019805908203
      ],
      "type": "VEC3"
    },
    {
      "bufferView": 2,
      "byteOffset": 2359176,
      "componentType": 5126,
      "count": 65534,
      "max": [
        1.0,
        1.0,
        1.0
      ],
      "min": [
        -1.0,
        -1.0,
        -0.9595998525619507
      ],
      "type": "VEC3"
    },
    {
      "bufferView": 1,
      "byteOffset": 524256,
      "componentType": 5126,
      "count": 65534,
      "max": [
        0.9088948965072632,
        0.9679898023605347
      ],
      "min": [
        0.1759253591299057,
        0.1864469051361084
      ],
      "type": "VEC2"
    },
    {
      "bufferView": 0,
      "byteOffset": 1403448,
      "componentType": 5125,
      "count": 313881,
      "type": "SCALAR"
    },
    {
      "bufferView": 2,
      "byteOffset": 3145584,
      "componentType": 5126,
      "count": 65532,
      "max": [
        17.64539909362793,
        8.530824661254883,
        25.4620418548584
      ],
      "min": [
        -20.00459861755371,
        -19.76491355895996,
        -22.35094451904297
      ],
      "type": "VEC3"
    },
    {
      "bufferView": 2,
      "byteOffset": 3931968,
      "componentType": 5126,
      "count": 65532,
      "max": [
        1.0,
        1.0,
        1.0
      ],
      "min": [
        -1.0,
        -1.0,
        -1.0
      ],
      "type": "VEC3"
    },
    {
      "bufferView": 1,
      "byteOffset": 1048528,
      "componentType": 5126,
      "count": 65532,
      "max": [
        0.9998182654380798,
        0.9877563714981079
      ],
      "min": [
        0.011621630750596523,
        9.208917617797852e-05
      ],
      "type": "VEC2"
    },
    {
      "bufferView": 0,
      "byteOffset": 2658972,
      "componentType": 5125,
      "count": 340692,
      "type": "SCALAR"
    },
    {
      "bufferView": 2,
      "byteOffset": 4718352,
      "componentType": 5126,
      "count": 65532,
      "max": [
        19.529661178588867,
        22.894826889038086,
        16.81797981262207
      ],
      "min": [
        -18.108383178710938,
        -18.54578971862793,
        -21.878921508789063
      ],
      "type": "VEC3"
    },
    {
      "bufferView": 2,
      "byteOffset": 5504736,
      "componentType": 5126,
      "count": 65532,
      "max": [
        1.0,
        1.0,
        1.0
      ],
      "min": [
        -1.0,
        -1.0,
        -1.0
      ],
      "type": "VEC3"
    },
    {
      "bufferView": 1,
      "byteOffset": 1572784,
      "componentType": 5126,
      "count": 65532,
      "max": [
        0.9977601766586304,
        0.9935091733932495
      ],
      "min": [
        9.305401908932254e-05,
        0.00028973817825317383
      ],
      "type": "VEC2"
    },
    {
      "bufferView": 0,
      "byteOffset": 4021740,
      "componentType": 5125,
      "count": 329673,
      "type": "SCALAR"
    },
    {
      "bufferView": 2,
      "byteOffset": 6291120,
      "componentType": 5126,
      "count": 65532,
      "max": [
        19.59980583190918,
        23.217756271362305,
        17.117979049682617
      ],
      "min": [
        -20.046215057373047,
        -0.01917266845703125,
        -20.96642303466797
      ],
      "type": "VEC3"
    },
    {
      "bufferView": 2,
      "byteOffset": 7077504,
      "componentType": 5126,
      "count": 65532,
      "max": [
        1.0,
        1.0,
        1.0
      ],
      "min": [
        -1.0,
        -1.0,
        -1.0
      ],
      "type": "VEC3"
    },
    {
      "bufferView": 1,
      "byteOffset": 2097040,
      "componentType": 5126,
      "count": 65532,
      "max": [
        0.9933477640151978,
        0.9880785942077637
      ],
      "min": [
        0.008729732595384121,
        0.06781506538391113
      ],
      "type": "VEC2"
    },
    {
      "bufferView": 0,
      "byteOffset": 5340432,
      "componentType": 5125,
      "count": 339567,
      "type": "SCALAR"
    },
    {
      "bufferView": 2,
      "byteOffset": 7863888,
      "componentType": 5126,
      "count": 65532,
      "max": [
        19.445402145385742,
        23.083263397216797,
        7.967981338500977
      ],
      "min": [
        -20.67827796936035,
        -5.4191741943359375,
        -20.982017517089844
      ],
      "type": "VEC3"
    },
    {
      "bufferView": 2,
      "byteOffset": 8650272,
      "componentType": 5126,
      "count": 65532,
      "max": [
        1.0,
        1.0,
        1.0
      ],
      "min": [
        -1.0,
        -1.0,
        -1.0
      ],
      "type": "VEC3"
    },
    {
      "bufferView": 1,
      "byteOffset": 2621296,
      "componentType": 5126,
      "count": 65532,
      "max": [
        0.9978809952735901,
        0.9999497532844543
      ],
      "min": [
        0.00037426126073114574,
        0.001259148120880127
      ],
      "type": "VEC2"
    },
    {
      "bufferView": 0,
      "byteOffset": 6698700,
      "componentType": 5125,
      "count": 329988,
      "type": "SCALAR"
    },
    {
      "bufferView": 2,
      "byteOffset": 9436656,
      "componentType": 5126,
      "count": 65532,
      "max": [
        19.341543197631836,
        23.107440948486328,
        19.308656692504883
      ],
      "min": [
        -20.38794708251953,
        -16.198537826538086,
        -20.83201789855957
      ],
      "type": "VEC3"
    },
    {
      "bufferView": 2,
      "byteOffset": 10223040,
      "componentType": 5126,
      "count": 65532,
      "max": [
        1.0,
        1.0,
        1.0
      ],
      "min": [
        -1.0,
        -1.0,
        -1.0
      ],
      "type": "VEC3"
    },
    {
      "bufferView": 1,
      "byteOffset": 3145552,
      "componentType": 5126,
      "count": 65532,
      "max": [
        0.9999171495437622,
        0.9999937415122986
      ],
      "min": [
        0.0020333786960691214,
        0.0027711987495422363
      ],
      "type": "VEC2"
    },
    {
      "bufferView": 0,
      "byteOffset": 8018652,
      "componentType": 5125,
      "count": 266655,
      "type": "SCALAR"
    },
    {
      "bufferView": 2,
      "byteOffset": 11009424,
      "componentType": 5126,
      "count": 29395,
      "max": [
        19.22841453552246,
        1.3308258056640625,
        1.5179805755615234
      ],
      "min": [
        -20.604597091674805,
        -17.865293502807617,
        -22.190526962280273
      ],
      "type": "VEC3"
    },
    {
      "bufferView": 2,
      "byteOffset": 11362164,
      "componentType": 5126,
      "count": 29395,
      "max": [
        1.0,
        0.9999997019767761,
        0.9993430376052856
      ],
      "min": [
        -1.0,
        -1.0,
        -1.0
      ],
      "type": "VEC3"
    },
    {
      "bufferView": 1,
      "byteOffset": 3669808,
      "componentType": 5126,
      "count": 29395,
      "max": [
        0.9999116659164429,
        0.9966498017311096
      ],
      "min": [
        9.305401908932254e-05,
        0.00024253129959106445
      ],
      "type": "VEC2"
    },
    {
      "bufferView": 0,
      "byteOffset": 9085272,
      "componentType": 5125,
      "count": 104481,
      "type": "SCALAR"
    }
  ],
  "asset": {
    "extras": {
      "author": "aellis43 (https://sketchfab.com/aellis43)",
      "license": "CC-BY-4.0 (http://creativecommons.org/licenses/by/4.0/)",
      "source": "https://sketchfab.com/3d-models/strawberry-955d7663348d48ea9defca64e8626064",
      "title": "Strawberry"
    },
    "generator": "Sketchfab-12.67.0",
    "version": "2.0"
  },
  "bufferViews": [
    {
      "buffer": 0,
      "byteLength": 9503196,
      "name": "floatBufferViews",
      "target": 34963
    },
    {
      "buffer": 0,
      "byteLength": 3904968,
      "byteOffset": 9503196,
      "byteStride": 8,
      "name": "floatBufferViews",
      "target": 34962
    },
    {
      "buffer": 0,
      "byteLength": 11714904,
      "byteOffset": 13408164,
      "byteStride": 12,
      "name": "floatBufferViews",
      "target": 34962
    }
  ],
  "buffers": [
    {
      "byteLength": 25123068,
      "uri": "scene.bin"
    }
  ],
  "images": [
    {
      "uri": "textures/material_0_baseColor.jpeg"
    }
  ],
  "materials": [
    {
      "doubleSided": true,
      "name": "material_0",
      "pbrMetallicRoughness": {
        "baseColorTexture": {
          "index": 0
        },
        "metallicFactor": 0.0,
        "roughnessFactor": 0.6
      }
    }
  ],
  "meshes": [
    {
      "name": "Object_0",
      "primitives": [
        {
          "attributes": {
            "NORMAL": 1,
            "POSITION": 0,
            "TEXCOORD_0": 2
          },
          "indices": 3,
          "material": 0,
          "mode": 4
        }
      ]
    },
    {
      "name": "Object_1",
      "primitives": [
        {
          "attributes": {
            "NORMAL": 5,
            "POSITION": 4,
            "TEXCOORD_0": 6
          },
          "indices": 7,
          "material": 0,
          "mode": 4
        }
      ]
    },
    {
      "name": "Object_2",
      "primitives": [
        {
          "attributes": {
            "NORMAL": 9,
            "POSITION": 8,
            "TEXCOORD_0": 10
          },
          "indices": 11,
          "material": 0,
          "mode": 4
        }
      ]
    },
    {
      "name": "Object_3",
      "primitives": [
        {
          "attributes": {
            "NORMAL": 13,
            "POSITION": 12,
            "TEXCOORD_0": 14
          },
          "indices": 15,
          "material": 0,
          "mode": 4
        }
      ]
    },
    {
      "name": "Object_4",
      "primitives": [
        {
          "attributes": {
            "NORMAL": 17,
            "POSITION": 16,
            "TEXCOORD_0": 18
          },
          "indices": 19,
          "material": 0,
          "mode": 4
        }
      ]
    },
    {
      "name": "Object_5",
      "primitives": [
        {
          "attributes": {
            "NORMAL": 21,
            "POSITION": 20,
            "TEXCOORD_0": 22
          },
          "indices": 23,
          "material": 0,
          "mode": 4
        }
      ]
    },
    {
      "name": "Object_6",
      "primitives": [
        {
          "attributes": {
            "NORMAL": 25,
            "POSITION": 24,
            "TEXCOORD_0": 26
          },
          "indices": 27,
          "material": 0,
          "mode": 4
        }
      ]
    },
    {
      "name": "Object_7",
      "primitives": [
        {
          "attributes": {
            "NORMAL": 29,
            "POSITION": 28,
            "TEXCOORD_0": 30
          },
          "indices": 31,
          "material": 0,
          "mode": 4
        }
      ]
    }
  ],
  "nodes": [
    {
      "children": [
        1
      ],
      "matrix": [
        1.0,
        0.0,
        0.0,
        0.0,
        0.0,
        2.220446049250313e-16,
        -1.0,
        0.0,
        0.0,
        1.0,
        2.220446049250313e-16,
        0.0,
        0.0,
        0.0,
        0.0,
        1.0
      ],
      "name": "Sketchfab_model"
    },
    {
      "children": [
        2,
        3,
        4,
        5,
        6,
        7,
        8,
        9
      ],
      "name": "Strawberry01a.obj.cleaner"
    },
    {
      "mesh": 0,
      "name": "Object_2"
    },
    {
      "mesh": 1,
      "name": "Object_3"
    },
    {
      "mesh": 2,
      "name": "Object_4"
    },
    {
      "mesh": 3,
      "name": "Object_5"
    },
    {
      "mesh": 4,
      "name": "Object_6"
    },
    {
      "mesh": 5,
      "name": "Object_7"
    },
    {
      "mesh": 6,
      "name": "Object_8"
    },
    {
      "mesh": 7,
      "name": "Object_9"
    }
  ],
  "samplers": [
    {
      "magFilter": 9729,
      "minFilter": 9987,
      "wrapS": 10497,
      "wrapT": 10497
    }
  ],
  "scene": 0,
  "scenes": [
    {
      "name": "Sketchfab_Scene",
      "nodes": [
        0
      ]
    }
  ],
  "textures": [
    {
      "sampler": 0,
      "source": 0
    }
  ]
}
