{
  "accessors": [
    {
      "bufferView": 2,
      "componentType": 5126,
      "count": 616,
      "max": [
        0.010634999722242355,
        0.010703999549150467,
        0.01614999957382679
      ],
      "min": [
        -0.010897000320255756,
        -0.010912000201642513,
        -6.199999916134402e-05
      ],
      "type": "VEC3"
    },
    {
      "bufferView": 2,
      "byteOffset": 7392,
      "componentType": 5126,
      "count": 616,
      "max": [
        0.9998618364334106,
        0.9943832159042358,
        0.999727189540863
      ],
      "min": [
        -0.9914812445640564,
        -0.9915025234222412,
        -0.9971956014633179
      ],
      "type": "VEC3"
    },
    {
      "bufferView": 3,
      "componentType": 5126,
      "count": 616,
      "max": [
        0.9991100430488586,
        0.9965287446975708,
        0.9999781250953674,
        1.0
      ],
      "min": [
        -0.9996331930160522,
        -0.9990606307983398,
        -0.9941672682762146,
        1.0
      ],
      "type": "VEC4"
    },
    {
      "bufferView": 1,
      "componentType": 5126,
      "count": 616,
      "max": [
        0.9921259880065918,
        0.9598169922828674
      ],
      "min": [
        0.007873999886214733,
        0.00761799979954958
      ],
      "type": "VEC2"
    },
    {
      "bufferView": 0,
      "componentType": 5125,
      "count": 3000,
      "type": "SCALAR"
    }
  ],
  "asset": {
    "extras": {
      "author": "inciprocal (https://sketchfab.com/inciprocal.com)",
      "license": "CC-BY-4.0 (http://creativecommons.org/licenses/by/4.0/)",
      "source": "https://sketchfab.com/3d-models/gourmet-blueberry-62f6c6368c484dd6a85a2a162133d2e0",
      "title": "Gourmet Blueberry"
    },
    "generator": "Sketchfab-12.65.0",
    "version": "2.0"
  },
  "bufferViews": [
    {
      "buffer": 0,
      "byteLength": 12000,
      "name": "floatBufferViews",
      "target": 34963
    },
    {
      "buffer": 0,
      "byteLength": 4928,
      "byteOffset": 12000,
      "byteStride": 8,
      "name": "floatBufferViews",
      "target": 34962
    },
    {
      "buffer": 0,
      "byteLength": 14784,
      "byteOffset": 16928,
      "byteStride": 12,
      "name": "floatBufferViews",
      "target": 34962
    },
    {
      "buffer": 0,
      "byteLength": 9856,
      "byteOffset": 31712,
      "byteStride": 16,
      "name": "floatBufferViews",
      "target": 34962
    }
  ],
  "buffers": [
    {
      "byteLength": 41568,
      "uri": "scene.bin"
    }
  ],
  "extensionsRequired": [
    "KHR_materials_pbrSpecularGlossiness"
  ],
  "extensionsUsed": [
    "KHR_materials_pbrSpecularGlossiness"
  ],
  "images": [
    {
      "uri": "textures/fr_gourmetBlueberry_diffuse.jpeg"
    },
    {
      "uri": "textures/fr_gourmetBlueberry_specularGlossiness.png"
    },
    {
      "uri": "textures/fr_gourmetBlueberry_normal.jpeg"
    },
    {
      "uri": "textures/fr_gourmetBlueberry_occlusion.png"
    }
  ],
  "materials": [
    {
      "doubleSided": true,
      "extensions": {
        "KHR_materials_pbrSpecularGlossiness": {
          "diffuseFactor": [
            1.0,
            1.0,
            1.0,
            1.0
          ],
          "diffuseTexture": {
            "index": 0
          },
          "glossinessFactor": 1.0,
          "specularFactor": [
            0.5185247675853808,
            0.5185247675853808,
            0.5185247675853808
          ],
          "specularGlossinessTexture": {
            "index": 1
          }
        }
      },
      "name": "fr_gourmetBlueberry",
      "normalTexture": {
        "index": 2
      },
      "occlusionTexture": {
        "index": 3
      }
    }
  ],
  "meshes": [
    {
      "name": "Object_0",
      "primitives": [
        {
          "attributes": {
            "NORMAL": 1,
            "POSITION": 0,
            "TANGENT": 2,
            "TEXCOORD_0": 3
          },
          "indices": 4,
          "material": 0,
          "mode": 4
        }
      ]
    }
  ],
  "nodes": [
    {
      "children": [
        1
      ],
      "matrix": [
        -1.0,
        -1.3596311327747833e-32,
        6.123234262925839e-17,
        0.0,
        6.123234262925839e-17,
        -2.220446049250313e-16,
        1.0,
        0.0,
        0.0,
        1.0,
        2.220446049250313e-16,
        0.0,
        0.00017095495422836393,
        2.1426118194958398e-19,
        -0.0009649465791881084,
        1.0
      ],
      "name": "Sketchfab_model"
    },
    {
      "children": [
        2
      ],
      "name": "fr_gourmetBlueberry.obj.cleaner.materialmerger.gles"
    },
    {
      "mesh": 0,
      "name": "Object_2"
    }
  ],
  "samplers": [
    {
      "magFilter": 9729,
      "minFilter": 9987,
      "wrapS": 10497,
      "wrapT": 10497
    }
  ],
  "scene": 0,
  "scenes": [
    {
      "name": "Sketchfab_Scene",
      "nodes": [
        0
      ]
    }
  ],
  "textures": [
    {
      "sampler": 0,
      "source": 0
    },
    {
      "sampler": 0,
      "source": 1
    },
    {
      "sampler": 0,
      "source": 2
    },
    {
      "sampler": 0,
      "source": 3
    }
  ]
}
