{
  "accessors": [
    {
      "bufferView": 2,
      "componentType": 5126,
      "count": 252,
      "max": [
        0.36562415957450867,
        3.3286609649658203,
        5.904979705810547
      ],
      "min": [
        -6.2846455574035645,
        0.04174619913101196,
        -0.7452910542488098
      ],
      "type": "VEC3"
    },
    {
      "bufferView": 2,
      "byteOffset": 3024,
      "componentType": 5126,
      "count": 252,
      "max": [
        0.9773468971252441,
        0.995219886302948,
        0.9725959300994873
      ],
      "min": [
        -0.9712557792663574,
        -0.45346799492836,
        -0.9726971983909607
      ],
      "type": "VEC3"
    },
    {
      "bufferView": 1,
      "componentType": 5126,
      "count": 252,
      "max": [
        0.883036196231842,
        0.6617758274078369
      ],
      "min": [
        0.026774108409881592,
        0.02316451072692871
      ],
      "type": "VEC2"
    },
    {
      "bufferView": 0,
      "componentType": 5125,
      "count": 960,
      "type": "SCALAR"
    },
    {
      "bufferView": 2,
      "byteOffset": 6048,
      "componentType": 5126,
      "count": 893,
      "max": [
        0.4114539325237274,
        8.699727058410645,
        5.9440178871154785
      ],
      "min": [
        -6.233063220977783,
        2.124878406524658,
        -0.852187991142273
      ],
      "type": "VEC3"
    },
    {
      "bufferView": 2,
      "byteOffset": 16764,
      "componentType": 5126,
      "count": 893,
      "max": [
        0.9986213445663452,
        0.9999976754188538,
        0.997597873210907
      ],
      "min": [
        -0.9927607178688049,
        -0.9569563865661621,
        -0.9970006942749023
      ],
      "type": "VEC3"
    },
    {
      "bufferView": 1,
      "byteOffset": 2016,
      "componentType": 5126,
      "count": 893,
      "max": [
        0.9589535593986511,
        0.9691144227981567
      ],
      "min": [
        0.027940934523940086,
        0.07067608833312988
      ],
      "type": "VEC2"
    },
    {
      "bufferView": 0,
      "byteOffset": 3840,
      "componentType": 5125,
      "count": 4239,
      "type": "SCALAR"
    },
    {
      "bufferView": 2,
      "byteOffset": 27480,
      "componentType": 5126,
      "count": 183,
      "max": [
        0.5312352180480957,
        8.881784197001252e-16,
        6.4180216789245605
      ],
      "min": [
        -5.697500228881836,
        0.0,
        -0.7790166735649109
      ],
      "type": "VEC3"
    },
    {
      "bufferView": 2,
      "byteOffset": 29676,
      "componentType": 5126,
      "count": 183,
      "max": [
        0.0,
        1.0,
        1.5529620540909052e-22
      ],
      "min": [
        0.0,
        1.0,
        -6.21884017455652e-22
      ],
      "type": "VEC3"
    },
    {
      "bufferView": 1,
      "byteOffset": 9160,
      "componentType": 5126,
      "count": 183,
      "max": [
        0.8905338048934937,
        0.4797666072845459
      ],
      "min": [
        0.6345428824424744,
        0.06494420766830444
      ],
      "type": "VEC2"
    },
    {
      "bufferView": 0,
      "byteOffset": 20796,
      "componentType": 5125,
      "count": 864,
      "type": "SCALAR"
    },
    {
      "bufferView": 2,
      "byteOffset": 31872,
      "componentType": 5126,
      "count": 228,
      "max": [
        0.8134504556655884,
        1.4786615371704102,
        1.5735716819763184
      ],
      "min": [
        -1.4691826105117798,
        -0.024887561798095703,
        -1.1148102283477783
      ],
      "type": "VEC3"
    },
    {
      "bufferView": 2,
      "byteOffset": 34608,
      "componentType": 5126,
      "count": 228,
      "max": [
        1.0,
        1.0,
        1.0
      ],
      "min": [
        -1.0,
        -1.0,
        -1.0
      ],
      "type": "VEC3"
    },
    {
      "bufferView": 1,
      "byteOffset": 10624,
      "componentType": 5126,
      "count": 228,
      "max": [
        0.9621405005455017,
        0.9748495817184448
      ],
      "min": [
        0.03602130711078644,
        0.08315271139144897
      ],
      "type": "VEC2"
    },
    {
      "bufferView": 0,
      "byteOffset": 24252,
      "componentType": 5125,
      "count": 1152,
      "type": "SCALAR"
    }
  ],
  "asset": {
    "extras": {
      "author": "anastasiaremezova (https://sketchfab.com/anastasiaremezova)",
      "license": "CC-BY-4.0 (http://creativecommons.org/licenses/by/4.0/)",
      "source": "https://sketchfab.com/3d-models/blueberry-cupcake-a6726b68b53940a892927a77b6a8b441",
      "title": "Blueberry cupcake"
    },
    "generator": "Sketchfab-12.65.0",
    "version": "2.0"
  },
  "bufferViews": [
    {
      "buffer": 0,
      "byteLength": 28860,
      "name": "floatBufferViews",
      "target": 34963
    },
    {
      "buffer": 0,
      "byteLength": 12448,
      "byteOffset": 28860,
      "byteStride": 8,
      "name": "floatBufferViews",
      "target": 34962
    },
    {
      "buffer": 0,
      "byteLength": 37344,
      "byteOffset": 41308,
      "byteStride": 12,
      "name": "floatBufferViews",
      "target": 34962
    }
  ],
  "buffers": [
    {
      "byteLength": 78652,
      "uri": "scene.bin"
    }
  ],
  "extensionsUsed": [
    "KHR_materials_unlit"
  ],
  "images": [
    {
      "uri": "textures/lambert3_baseColor.png"
    },
    {
      "uri": "textures/lambert4_baseColor.png"
    },
    {
      "uri": "textures/lambert6_baseColor.png"
    },
    {
      "uri": "textures/lambert7_baseColor.png"
    }
  ],
  "materials": [
    {
      "doubleSided": true,
      "extensions": {
        "KHR_materials_unlit": {}
      },
      "name": "lambert3",
      "pbrMetallicRoughness": {
        "baseColorTexture": {
          "index": 0
        },
        "metallicFactor": 0.0
      }
    },
    {
      "doubleSided": true,
      "extensions": {
        "KHR_materials_unlit": {}
      },
      "name": "lambert4",
      "pbrMetallicRoughness": {
        "baseColorTexture": {
          "index": 1
        },
        "metallicFactor": 0.0
      }
    },
    {
      "alphaMode": "BLEND",
      "doubleSided": true,
      "extensions": {
        "KHR_materials_unlit": {}
      },
      "name": "lambert6",
      "pbrMetallicRoughness": {
        "baseColorFactor": [
          1.0,
          1.0,
          1.0,
          0.5671661528920344
        ],
        "baseColorTexture": {
          "index": 2
        },
        "metallicFactor": 0.0
      }
    },
    {
      "doubleSided": true,
      "extensions": {
        "KHR_materials_unlit": {}
      },
      "name": "lambert7",
      "pbrMetallicRoughness": {
        "baseColorTexture": {
          "index": 3
        },
        "metallicFactor": 0.0
      }
    }
  ],
  "meshes": [
    {
      "name": "Muffin_lowpoly1_lambert3_0",
      "primitives": [
        {
          "attributes": {
            "NORMAL": 1,
            "POSITION": 0,
            "TEXCOORD_0": 2
          },
          "indices": 3,
          "material": 0,
          "mode": 4
        }
      ]
    },
    {
      "name": "Muffin_lowpoly1_lambert4_0",
      "primitives": [
        {
          "attributes": {
            "NORMAL": 5,
            "POSITION": 4,
            "TEXCOORD_0": 6
          },
          "indices": 7,
          "material": 1,
          "mode": 4
        }
      ]
    },
    {
      "name": "Muffin_lowpoly1_lambert6_0",
      "primitives": [
        {
          "attributes": {
            "NORMAL": 9,
            "POSITION": 8,
            "TEXCOORD_0": 10
          },
          "indices": 11,
          "material": 2,
          "mode": 4
        }
      ]
    },
    {
      "name": "Muffin_lowpoly1_lambert7_0",
      "primitives": [
        {
          "attributes": {
            "NORMAL": 13,
            "POSITION": 12,
            "TEXCOORD_0": 14
          },
          "indices": 15,
          "material": 3,
          "mode": 4
        }
      ]
    }
  ],
  "nodes": [
    {
      "children": [
        1
      ],
      "matrix": [
        1.0,
        0.0,
        0.0,
        0.0,
        0.0,
        2.220446049250313e-16,
        -1.0,
        0.0,
        0.0,
        1.0,
        2.220446049250313e-16,
        0.0,
        0.0,
        0.0,
        0.0,
        1.0
      ],
      "name": "Sketchfab_model"
    },
    {
      "children": [
        2
      ],
      "matrix": [
        1.0,
        0.0,
        0.0,
        0.0,
        0.0,
        0.0,
        1.0,
        0.0,
        0.0,
        -1.0,
        0.0,
        0.0,
        0.0,
        0.0,
        0.0,
        1.0
      ],
      "name": "Muffin_lowpoly.fbx"
    },
    {
      "children": [
        3
      ],
      "name": "RootNode"
    },
    {
      "children": [
        4,
        5,
        6,
        7
      ],
      "name": "Muffin_lowpoly1"
    },
    {
      "mesh": 0,
      "name": "Muffin_lowpoly1_lambert3_0"
    },
    {
      "mesh": 1,
      "name": "Muffin_lowpoly1_lambert4_0"
    },
    {
      "mesh": 2,
      "name": "Muffin_lowpoly1_lambert6_0"
    },
    {
      "mesh": 3,
      "name": "Muffin_lowpoly1_lambert7_0"
    }
  ],
  "samplers": [
    {
      "magFilter": 9729,
      "minFilter": 9987,
      "wrapS": 10497,
      "wrapT": 10497
    }
  ],
  "scene": 0,
  "scenes": [
    {
      "name": "Sketchfab_Scene",
      "nodes": [
        0
      ]
    }
  ],
  "textures": [
    {
      "sampler": 0,
      "source": 0
    },
    {
      "sampler": 0,
      "source": 1
    },
    {
      "sampler": 0,
      "source": 2
    },
    {
      "sampler": 0,
      "source": 3
    }
  ]
}
